<svg width="497" height="76" viewBox="0 0 497 76" fill="none" xmlns="http://www.w3.org/2000/svg">
<path d="M0.318182 74H45.0114V61.8295H15.0795V4.18182H0.318182V74ZM43.4091 16.3523H64.7841V74H79.375V16.3523H100.75V4.18182H43.4091V16.3523ZM124.955 4.18182H110.193V74H124.955V4.18182ZM159.318 74H204.011V61.8295H174.08V4.18182H159.318V74ZM213.514 74H228.037V21.6364H213.514V74ZM220.81 14.8864C225.139 14.8864 228.685 11.5795 228.685 7.52272C228.685 3.5 225.139 0.193178 220.81 0.193178C216.514 0.193178 212.969 3.5 212.969 7.52272C212.969 11.5795 216.514 14.8864 220.81 14.8864ZM239.67 74H254.193V42.5682C254.193 36.7727 257.875 32.9205 262.716 32.9205C267.489 32.9205 270.693 36.1932 270.693 41.3409V74H284.773V42.0227C284.773 36.6023 287.875 32.9205 293.159 32.9205C297.795 32.9205 301.273 35.8182 301.273 41.6477V74H315.761V38.7841C315.761 27.4318 309.011 20.9545 299.261 20.9545C291.591 20.9545 285.625 24.875 283.477 30.875H282.932C281.261 24.8068 275.909 20.9545 268.716 20.9545C261.659 20.9545 256.307 24.7045 254.125 30.875H253.511V21.6364H239.67V74ZM327.233 74H341.756V21.6364H327.233V74ZM334.528 14.8864C338.858 14.8864 342.403 11.5795 342.403 7.52272C342.403 3.5 338.858 0.193178 334.528 0.193178C330.233 0.193178 326.688 3.5 326.688 7.52272C326.688 11.5795 330.233 14.8864 334.528 14.8864ZM381.241 21.6364H371.389V9.09091H356.866V21.6364H349.707V32.5455H356.866V59.8182C356.798 70.0795 363.787 75.1591 374.321 74.7159C378.071 74.5795 380.73 73.8295 382.196 73.3523L379.912 62.5455C379.196 62.6818 377.662 63.0227 376.298 63.0227C373.401 63.0227 371.389 61.9318 371.389 57.9091V32.5455H381.241V21.6364ZM414.003 75.0227C426.957 75.0227 435.685 68.7159 437.73 59L424.298 58.1136C422.832 62.1023 419.082 64.1818 414.241 64.1818C406.98 64.1818 402.378 59.375 402.378 51.5682V51.5341H438.037V47.5455C438.037 29.75 427.264 20.9545 413.423 20.9545C398.014 20.9545 388.026 31.8977 388.026 48.0568C388.026 64.6591 397.878 75.0227 414.003 75.0227ZM402.378 42.5341C402.685 36.5682 407.219 31.7955 413.662 31.7955C419.969 31.7955 424.332 36.2955 424.366 42.5341H402.378ZM466.81 74.8523C475.264 74.8523 479.662 69.9773 481.673 65.6136H482.287V74H496.605V4.18182H482.116V30.4318H481.673C479.73 26.1705 475.537 20.9545 466.776 20.9545C455.287 20.9545 445.571 29.8864 445.571 47.8864C445.571 65.4091 454.878 74.8523 466.81 74.8523ZM471.412 63.2955C464.287 63.2955 460.401 56.9545 460.401 47.8182C460.401 38.75 464.219 32.5114 471.412 32.5114C478.469 32.5114 482.423 38.4773 482.423 47.8182C482.423 57.1591 478.401 63.2955 471.412 63.2955Z" fill="#0E416C"/>
</svg>
